<svg width="44" height="44" viewBox="0 0 44 44" fill="none" xmlns="http://www.w3.org/2000/svg"><path d="M35.546 30.86H3.954a2.579 2.579 0 01-2.579-2.578V4.426a2.579 2.579 0 012.579-2.579h31.592a2.579 2.579 0 012.579 2.58v23.855a2.58 2.58 0 01-2.58 2.578z" fill="#E0EBFC"/><path d="M3.323 22.157V4.749c0-.534.433-.967.967-.967h30.947c.535 0 .968.433.968.967v17.408a.967.967 0 01-.968.967H4.29a.967.967 0 01-.967-.967z" fill="#fff"/><path d="M12.214 31.281l-1.3 5.319h17.73l-1.3-5.319h-15.13zM1.375 25.058v3.224a2.579 2.579 0 002.579 2.579h31.592a2.58 2.58 0 002.579-2.58v-3.223H1.375z" fill="#E0EBFC"/><path d="M19.833 29.571h-.166c-.84 0-1.529-.688-1.529-1.53v-.165c0-.84.688-1.529 1.53-1.529h.165c.84 0 1.529.688 1.529 1.53v.165c0 .84-.688 1.529-1.53 1.529z" fill="#21212D"/><path d="M35.546 31.204H3.954a2.926 2.926 0 01-2.923-2.922V4.426a2.926 2.926 0 012.923-2.922h31.592a2.926 2.926 0 012.922 2.922v23.856a2.926 2.926 0 01-2.922 2.922zM3.954 2.191a2.238 2.238 0 00-2.235 2.235v23.856a2.238 2.238 0 002.235 2.235h31.592a2.238 2.238 0 002.235-2.235V4.426a2.238 2.238 0 00-2.235-2.235H3.954zm26.98 36.589H8.566a1.25 1.25 0 01-1.249-1.249v-.447c0-.688.56-1.248 1.249-1.248h22.368c.688 0 1.248.56 1.248 1.248v.447a1.25 1.25 0 01-1.248 1.249zM8.566 36.523a.561.561 0 00-.561.561v.448c0 .309.252.56.56.56h22.369a.56.56 0 00.56-.56v-.448a.562.562 0 00-.56-.56H8.566z" fill="#21212D"/><path d="M28.615 36.523h-17.73a.344.344 0 01-.334-.425l1.3-5.319a.344.344 0 01.334-.262h15.13c.159 0 .296.108.334.262l1.3 5.319a.344.344 0 01-.334.425zm-17.292-.687h16.855l-1.132-4.631h-14.59l-1.133 4.63z" fill="#21212D"/><path d="M35.546 31.204H3.954a2.926 2.926 0 01-2.923-2.922v-3.224c0-.19.154-.344.344-.344h36.75c.19 0 .343.154.343.344v3.224a2.926 2.926 0 01-2.922 2.922zM1.719 25.402v2.88a2.238 2.238 0 002.235 2.235h31.592a2.238 2.238 0 002.235-2.235v-2.88H1.719zm33.518-1.934H4.29c-.723 0-1.31-.588-1.31-1.311V4.749c0-.723.587-1.31 1.31-1.31h30.947c.723 0 1.311.587 1.311 1.31v17.408c0 .723-.588 1.31-1.31 1.31zM4.29 4.126a.624.624 0 00-.623.623v17.408c0 .344.28.623.623.623h30.947c.344 0 .624-.28.624-.623V4.749a.624.624 0 00-.623-.623H4.29z" fill="#21212D"/><path d="M42.625 39.645H30.923V24.6h11.702v15.045z" fill="#fff"/><path d="M42.625 23.43v1.17H30.923v-1.17c0-.738.6-1.337 1.338-1.337h9.027c.738 0 1.337.598 1.337 1.337zM30.923 40.815v-1.17h11.702v1.17c0 .739-.599 1.338-1.337 1.338H32.26a1.337 1.337 0 01-1.338-1.338z" fill="#E0EBFC"/><path d="M41.288 42.497H32.26a1.683 1.683 0 01-1.681-1.681V23.43c0-.927.754-1.681 1.68-1.681h9.028c.927 0 1.68.754 1.68 1.681v17.385c0 .927-.753 1.682-1.68 1.682zm-9.027-20.06a.995.995 0 00-.994.993v17.385c0 .548.446.994.994.994h9.027a.995.995 0 00.993-.994V23.43a.995.995 0 00-.993-.994H32.26z" fill="#3762CC"/><path d="M35.771 41.568h2.006a.502.502 0 00.502-.502v-.334a.501.501 0 00-.502-.502h-2.006a.502.502 0 00-.502.502v.334c0 .277.225.502.502.502zm-.251-17.804h2.508a.418.418 0 000-.836H35.52a.418.418 0 000 .836z" fill="#21212D"/><path d="M42.625 24.944H30.923a.344.344 0 01-.343-.344v-1.17c0-.927.754-1.681 1.68-1.681h9.028c.927 0 1.68.754 1.68 1.681v1.17c0 .19-.153.344-.343.344zm-11.358-.688h11.014v-.826a.995.995 0 00-.993-.994H32.26a.995.995 0 00-.994.994v.826zm10.021 18.24H32.26a1.683 1.683 0 01-1.681-1.68v-1.17c0-.19.154-.345.343-.345h11.702c.19 0 .344.154.344.344v1.17c0 .927-.754 1.681-1.681 1.681zm-10.02-2.507v.826c0 .548.445.994.993.994h9.027a.995.995 0 00.993-.994v-.826H31.267z" fill="#21212D"/><path d="M41.288 42.497H32.26a1.683 1.683 0 01-1.681-1.681V23.43c0-.927.754-1.681 1.68-1.681h9.028c.927 0 1.68.754 1.68 1.681v17.385c0 .927-.753 1.682-1.68 1.682zm-9.027-20.06a.995.995 0 00-.994.993v17.385c0 .548.446.994.994.994h9.027a.995.995 0 00.993-.994V23.43a.995.995 0 00-.993-.994H32.26z" fill="#21212D"/></svg>