<svg width="44" height="44" viewBox="0 0 44 44" fill="none" xmlns="http://www.w3.org/2000/svg"><g clip-path="url(#clip0)"><path d="M6.42 14.674a2.75 2.75 0 00-2.75 2.75v12.83a2.75 2.75 0 005.5 0v-12.83a2.75 2.75 0 00-2.75-2.75zm31.16 0a2.75 2.75 0 00-2.75 2.75v12.83a2.75 2.75 0 105.499 0v-12.83a2.75 2.75 0 00-2.75-2.75zm-5.5 0H11.92a.917.917 0 00-.917.916v14.663a4.582 4.582 0 003.666 4.491v6.507a2.75 2.75 0 105.499 0v-6.415h3.666v6.415a2.75 2.75 0 005.498 0v-6.507a4.582 4.582 0 003.666-4.49V15.59a.917.917 0 00-.916-.916zM28.663 3.808l2.234-2.232A.917.917 0 1029.6.28l-2.603 2.603a12.543 12.543 0 00-9.995 0L14.401.278a.916.916 0 00-1.296 1.296l2.232 2.234a9.672 9.672 0 00-4.334 8.116c0 .506.41.917.916.917h20.162c.506 0 .916-.41.916-.917a9.672 9.672 0 00-4.334-8.116z" fill="#4CAF50"/><path d="M17.418 9.175a.916.916 0 100-1.833.916.916 0 000 1.833zm9.164 0a.916.916 0 100-1.833.916.916 0 000 1.833z" fill="#FAFAFA"/></g><defs><clipPath id="clip0"><path fill="#fff" d="M0 0h44v44H0z"/></clipPath></defs></svg>