<svg width="44" height="44" viewBox="0 0 44 44" fill="none" xmlns="http://www.w3.org/2000/svg"><g clip-path="url(#clip0)"><path d="M28.552 6.972C29.954 5.278 30.94 2.977 30.89.634a.654.654 0 00-.756-.626c-2.056.314-4.355 1.602-5.778 3.267-1.311 1.517-2.475 3.873-2.387 6.208.013.352.31.632.662.622 2.27-.064 4.51-1.423 5.922-3.133z" fill="#D6D6D8"/><path d="M23.738 9.483c-.135-3.62 2.596-7.848 7.028-9.211a.66.66 0 00-.633-.264c-2.056.314-4.355 1.602-5.778 3.267-1.311 1.517-2.475 3.873-2.387 6.208.013.352.31.632.662.622a6.46 6.46 0 001.31-.177.646.646 0 01-.202-.445z" fill="#C2C2C4"/><path d="M39.505 32.03c-1.424-.718-5.356-3.193-5.405-8.683-.041-4.494 2.94-7.107 4.209-8.02a.654.654 0 00.138-.932 9.534 9.534 0 00-3.47-2.764h.002a11.793 11.793 0 00-.626-.27c-5.957-2.346-9.711 1.248-11.985 1.248-1.741 0-4.428-1.967-7.275-1.913-3.74.054-7.186 2.176-9.115 5.524-2.96 5.137-1.984 12.159.322 17.632.059.14.153.358.231.534.668 1.5 1.433 2.87 2.239 4.035 1.85 2.674 4.057 5.687 6.957 5.576 2.79-.11 3.846-1.804 7.218-1.804 3.371 0 4.322 1.804 7.273 1.75 3.004-.057 4.906-2.728 6.744-5.415a24.601 24.601 0 002.867-5.702.653.653 0 00-.324-.797z" fill="#D6D6D8"/><path d="M10.54 38.422a25.225 25.225 0 01-2.238-4.037 33.224 33.224 0 01-.231-.533c-2.292-5.44-3.292-12.477-.322-17.632 1.781-3.092 4.856-5.137 8.263-5.474a6.645 6.645 0 00-.919-.05c-3.74.054-7.186 2.176-9.115 5.524-2.96 5.137-1.983 12.16.322 17.632.06.14.153.358.232.534.668 1.5 1.433 2.87 2.238 4.036 1.85 2.674 4.057 5.686 6.957 5.575.285-.011.552-.04.805-.08-2.433-.494-4.352-3.127-5.991-5.495z" fill="#C2C2C4"/></g><defs><clipPath id="clip0"><path fill="#fff" d="M0 0h44v44H0z"/></clipPath></defs></svg>