<svg width="44" height="44" viewBox="0 0 44 44" fill="none" xmlns="http://www.w3.org/2000/svg">
<g clip-path="url(#clip0)">
<path d="M6.42025 14.6737C4.90184 14.6737 3.6709 15.9046 3.6709 17.4231V30.2534C3.6709 31.7718 4.90184 33.0027 6.42025 33.0027C7.93867 33.0027 9.16961 31.7718 9.16961 30.2534V17.4231C9.16961 15.9046 7.93867 14.6737 6.42025 14.6737Z" fill="#4CAF50"/>
<path d="M37.5794 14.6737C36.061 14.6737 34.8301 15.9046 34.8301 17.4231V30.2534C34.8301 31.7718 36.061 33.0027 37.5794 33.0027C39.0979 33.0027 40.3288 31.7718 40.3288 30.2534V17.4231C40.3288 15.9046 39.0979 14.6737 37.5794 14.6737Z" fill="#4CAF50"/>
<path d="M32.0808 14.6737H11.9189C11.4128 14.6737 11.0024 15.084 11.0024 15.5902V30.2534C11.002 32.4312 12.5344 34.3084 14.6683 34.744V41.2508C14.6683 42.7692 15.8992 44.0001 17.4176 44.0001C18.9361 44.0001 20.167 42.7692 20.167 41.2508V34.8356H23.8328V41.2508C23.8328 42.7692 25.0638 44.0001 26.5822 44.0001C28.1006 44.0001 29.3315 42.7692 29.3315 41.2508V34.744C31.4654 34.3084 32.9978 32.4312 32.9974 30.2534V15.5902C32.9973 15.084 32.5869 14.6737 32.0808 14.6737Z" fill="#4CAF50"/>
<path d="M28.6626 3.80824L30.8969 1.57576C31.2609 1.2241 31.271 0.643986 30.9194 0.279868C30.5678 -0.0841636 29.9876 -0.0942159 29.6235 0.257358C29.6159 0.264747 29.6084 0.272222 29.601 0.279868L26.9983 2.88265C23.8106 1.49792 20.1912 1.49792 17.0035 2.88265L14.4008 0.278064C14.0367 -0.0735957 13.4565 -0.0634575 13.1049 0.300574C12.7619 0.655757 12.7619 1.21877 13.1049 1.57387L15.3374 3.80815C12.6158 5.60898 10.9857 8.66085 11.0026 11.9242C11.0026 12.4304 11.4129 12.8407 11.9191 12.8407H32.081C32.5872 12.8407 32.9975 12.4304 32.9975 11.9242C33.0143 8.66093 31.3842 5.60906 28.6626 3.80824Z" fill="#4CAF50"/>
<path d="M17.4179 9.175C17.9241 9.175 18.3344 8.76468 18.3344 8.25852C18.3344 7.75236 17.9241 7.34204 17.4179 7.34204C16.9118 7.34204 16.5015 7.75236 16.5015 8.25852C16.5015 8.76468 16.9118 9.175 17.4179 9.175Z" fill="#FAFAFA"/>
<path d="M26.5825 9.175C27.0887 9.175 27.499 8.76468 27.499 8.25852C27.499 7.75236 27.0887 7.34204 26.5825 7.34204C26.0763 7.34204 25.666 7.75236 25.666 8.25852C25.666 8.76468 26.0763 9.175 26.5825 9.175Z" fill="#FAFAFA"/>
</g>
<defs>
<clipPath id="clip0">
<rect width="44" height="44" fill="white" transform="translate(0 0.00012207)"/>
</clipPath>
</defs>
</svg>
