<svg width="44" height="44" viewBox="0 0 44 44" fill="none" xmlns="http://www.w3.org/2000/svg">
<g clip-path="url(#clip0)">
<path d="M28.5521 6.972C29.9536 5.27809 30.9385 2.97746 30.8891 0.634115C30.8808 0.240607 30.5218 -0.0515801 30.1327 0.00780269C28.0765 0.32199 25.7779 1.60976 24.3551 3.27549C23.0438 4.79169 21.88 7.14792 21.9675 9.48275C21.9807 9.83458 22.2779 10.115 22.6298 10.105C24.8994 10.0408 27.14 8.68182 28.5521 6.972Z" fill="#D6D6D8"/>
<path d="M23.7383 9.48272C23.6026 5.86295 26.3336 1.635 30.7664 0.271944C30.6273 0.080647 30.3868 -0.0309858 30.1327 0.00777205C28.0765 0.32196 25.7779 1.60973 24.3551 3.27546C23.0438 4.79165 21.88 7.14797 21.9675 9.48272C21.9807 9.83455 22.2779 10.115 22.6299 10.105C23.0699 10.0925 23.5088 10.0309 23.9408 9.92797C23.8218 9.81522 23.7448 9.65786 23.7383 9.48272Z" fill="#C2C2C4"/>
<path d="M39.5055 32.0294C38.0807 31.312 34.1487 28.8366 34.1001 23.3468C34.0585 18.8528 37.0405 16.2397 38.309 15.3273C38.6102 15.1107 38.6763 14.6867 38.4474 14.3948C37.3934 13.0512 36.1609 12.1893 34.9771 11.6306C34.9778 11.6306 34.9786 11.6304 34.9793 11.6303C34.826 11.5578 34.5635 11.4429 34.3533 11.3601C28.3962 9.01513 24.6419 12.6095 22.3677 12.6095C20.6265 12.6095 17.9397 10.6421 15.0929 10.6958C11.3522 10.7501 7.90659 12.8719 5.97755 16.22C3.01803 21.3569 3.99402 28.379 6.29981 33.8517C6.29981 33.8517 6.29973 33.8518 6.29973 33.8518C6.35877 33.9918 6.45278 34.2097 6.53116 34.3856C6.53124 34.3854 6.53124 34.3853 6.53133 34.3852C7.19932 35.8853 7.96408 37.2562 8.76974 38.4215C10.6197 41.0954 12.8267 44.1077 15.7265 43.997C18.5175 43.8863 19.5726 42.1925 22.9455 42.1925C26.3162 42.1925 27.267 43.997 30.2181 43.9433C33.2222 43.8863 35.1245 41.2145 36.9619 38.5279C38.579 36.1672 39.4711 33.863 39.8286 32.8257C39.9352 32.5165 39.7977 32.1765 39.5055 32.0294Z" fill="#D6D6D8"/>
<path d="M10.5409 38.4216C9.73522 37.2563 8.97047 35.8854 8.30247 34.3853C8.30239 34.3853 8.30239 34.3855 8.3023 34.3857C8.22401 34.2099 8.13077 33.9938 8.07087 33.8519C8.07087 33.8519 8.07096 33.8518 8.07096 33.8518C5.77935 28.4129 4.77861 21.3751 7.74869 16.2201C9.53026 13.1281 12.6055 11.0834 16.0119 10.7457C15.7082 10.7092 15.4019 10.6901 15.0934 10.6959C11.3527 10.7502 7.90708 12.872 5.97804 16.2201C3.01852 21.357 3.99451 28.3791 6.3003 33.8518C6.3003 33.8518 6.30022 33.8519 6.30022 33.8519C6.35926 33.9919 6.45327 34.2098 6.53165 34.3857C6.53173 34.3855 6.53182 34.3854 6.53182 34.3853C7.19981 35.8854 7.96457 37.2563 8.77015 38.4216C10.6201 41.0955 12.8271 44.1078 15.7269 43.9971C16.0122 43.9858 16.2786 43.9572 16.5319 43.9163C14.0992 43.423 12.1797 40.7904 10.5409 38.4216Z" fill="#C2C2C4"/>
</g>
<defs>
<clipPath id="clip0">
<rect width="44" height="44" fill="white" transform="translate(0 0.00012207)"/>
</clipPath>
</defs>
</svg>
