<svg width="44" height="44" viewBox="0 0 44 44" fill="none" xmlns="http://www.w3.org/2000/svg">
<path d="M35.5458 30.8604H3.95398C2.52966 30.8604 1.375 29.7058 1.375 28.2816V4.4264C1.375 3.00207 2.52966 1.84741 3.95398 1.84741H35.546C36.9703 1.84741 38.125 3.00207 38.125 4.4264V28.2816C38.1248 29.7058 36.9701 30.8604 35.5458 30.8604Z" fill="#E0EBFC"/>
<path d="M3.32324 22.1569V4.74906C3.32324 4.21487 3.7562 3.78192 4.29038 3.78192H35.2375C35.7717 3.78192 36.2047 4.21487 36.2047 4.74906V22.1569C36.2047 22.6911 35.7717 23.1241 35.2375 23.1241H4.29038C3.7562 23.1241 3.32324 22.6911 3.32324 22.1569Z" fill="white"/>
<path d="M12.2141 31.2814L10.9141 36.6H28.6442L27.3441 31.2814H12.2141Z" fill="#E0EBFC"/>
<path d="M1.375 25.0579V28.2816C1.375 29.7059 2.52966 30.8606 3.95398 30.8606H35.546C36.9703 30.8606 38.125 29.7059 38.125 28.2816V25.0579H1.375Z" fill="#E0EBFC"/>
<path d="M19.8329 29.571H19.6674C18.8264 29.571 18.1382 28.8828 18.1382 28.0419V27.8763C18.1382 27.0354 18.8264 26.3472 19.6674 26.3472H19.8329C20.6739 26.3472 21.362 27.0354 21.362 27.8763V28.0419C21.3619 28.8828 20.6739 29.571 19.8329 29.571Z" fill="#21212D"/>
<path d="M35.546 31.2044H3.95398C2.34231 31.2044 1.03125 29.8933 1.03125 28.2816V4.4264C1.03125 2.81472 2.34231 1.50366 3.95398 1.50366H35.546C37.1575 1.50366 38.4685 2.81472 38.4685 4.4264V28.2816C38.4685 29.8933 37.1575 31.2044 35.546 31.2044ZM3.95398 2.19116C2.72147 2.19116 1.71875 3.19388 1.71875 4.4264V28.2816C1.71875 29.5141 2.72147 30.5169 3.95398 30.5169H35.546C36.7783 30.5169 37.781 29.5141 37.781 28.2816V4.4264C37.781 3.19388 36.7783 2.19116 35.546 2.19116H3.95398Z" fill="#21212D"/>
<path d="M30.9339 38.7799H8.56571C7.87735 38.7799 7.31738 38.2198 7.31738 37.5314V37.084C7.31738 36.3957 7.87735 35.8355 8.56571 35.8355H30.9339C31.6222 35.8355 32.1824 36.3957 32.1824 37.084V37.5314C32.1824 38.2198 31.6224 38.7799 30.9339 38.7799ZM8.56571 36.5232C8.25651 36.5232 8.00488 36.7748 8.00488 37.0842V37.5316C8.00488 37.841 8.25651 38.0926 8.56571 38.0926H30.9339C31.2432 38.0926 31.4949 37.841 31.4949 37.5316V37.0842C31.4949 36.7748 31.2432 36.5232 30.9339 36.5232H8.56571Z" fill="#21212D"/>
<path d="M28.6153 36.5232H10.8852C10.7797 36.5232 10.68 36.4747 10.6149 36.3917C10.5497 36.3087 10.5263 36.2002 10.5513 36.0978L11.8513 30.7791C11.889 30.6251 12.0268 30.517 12.1853 30.517H27.3151C27.4736 30.517 27.6114 30.6253 27.649 30.7791L28.9491 36.0978C28.9742 36.2002 28.9507 36.3087 28.8855 36.3917C28.8205 36.4747 28.721 36.5232 28.6153 36.5232ZM11.3232 35.8357H28.1776L27.0456 31.2045H12.4551L11.3232 35.8357Z" fill="#21212D"/>
<path d="M35.546 31.2042H3.95398C2.34231 31.2042 1.03125 29.8931 1.03125 28.2816V25.0579C1.03125 24.8682 1.18525 24.7142 1.375 24.7142H38.1248C38.3145 24.7142 38.4685 24.8682 38.4685 25.0579V28.2816C38.4685 29.8931 37.1575 31.2042 35.546 31.2042ZM1.71875 25.4017V28.2816C1.71875 29.514 2.72147 30.5167 3.95398 30.5167H35.546C36.7783 30.5167 37.781 29.514 37.781 28.2816V25.4017H1.71875Z" fill="#21212D"/>
<path d="M35.2375 23.4677H4.29038C3.56748 23.4677 2.97949 22.8796 2.97949 22.1569V4.74901C2.97949 4.02628 3.56748 3.43829 4.29038 3.43829H35.2375C35.9604 3.43829 36.5484 4.02628 36.5484 4.74901V22.1569C36.5484 22.8796 35.9604 23.4677 35.2375 23.4677ZM4.29038 4.12579C3.94663 4.12579 3.66699 4.40543 3.66699 4.74901V22.1569C3.66699 22.5006 3.94663 22.7802 4.29038 22.7802H35.2375C35.5813 22.7802 35.8609 22.5006 35.8609 22.1569V4.74901C35.8609 4.40543 35.5813 4.12579 35.2375 4.12579H4.29038Z" fill="#21212D"/>
<path d="M42.625 39.6453H30.9234V24.6003H42.625V39.6453Z" fill="white"/>
<path d="M42.6249 23.4301V24.6003H30.9233V23.4301C30.9233 22.6916 31.5222 22.0928 32.2607 22.0928H41.2877C42.0261 22.0928 42.6249 22.6914 42.6249 23.4301Z" fill="#E0EBFC"/>
<path d="M30.9233 40.8154V39.6453H42.6249V40.8154C42.6249 41.554 42.0261 42.1528 41.2876 42.1528H32.2605C31.522 42.1528 30.9233 41.554 30.9233 40.8154Z" fill="#E0EBFC"/>
<path d="M41.2877 42.4966H32.2607C31.3338 42.4966 30.5796 41.7424 30.5796 40.8155V23.43C30.5796 22.503 31.3338 21.749 32.2607 21.749H41.2877C42.2147 21.749 42.9689 22.5032 42.9689 23.43V40.8153C42.9689 41.7424 42.2147 42.4966 41.2877 42.4966ZM32.2607 22.4365C31.7128 22.4365 31.2671 22.8822 31.2671 23.43V40.8153C31.2671 41.3632 31.7128 41.8089 32.2607 41.8089H41.2877C41.8357 41.8089 42.2814 41.3631 42.2814 40.8153V23.43C42.2814 22.882 41.8357 22.4365 41.2877 22.4365H32.2607Z" fill="#3762CC"/>
<path d="M35.7711 41.5678H37.777C38.0539 41.5678 38.2785 41.3433 38.2785 41.0662V40.7319C38.2785 40.455 38.0541 40.2304 37.777 40.2304H35.7711C35.4942 40.2304 35.2695 40.4549 35.2695 40.7319V41.0662C35.2695 41.3431 35.4942 41.5678 35.7711 41.5678Z" fill="#21212D"/>
<path d="M35.5205 23.7644H38.028C38.2589 23.7644 38.446 23.5772 38.446 23.3464C38.446 23.1156 38.2589 22.9284 38.028 22.9284H35.5205C35.2897 22.9284 35.1025 23.1156 35.1025 23.3464C35.1027 23.5772 35.2897 23.7644 35.5205 23.7644Z" fill="#21212D"/>
<path d="M42.6251 24.944H30.9233C30.7336 24.944 30.5796 24.79 30.5796 24.6003V23.43C30.5796 22.503 31.3338 21.749 32.2607 21.749H41.2877C42.2147 21.749 42.9689 22.5032 42.9689 23.43V24.6003C42.9689 24.79 42.8149 24.944 42.6251 24.944ZM31.2671 24.2565H42.2814V23.43C42.2814 22.882 41.8357 22.4365 41.2877 22.4365H32.2607C31.7128 22.4365 31.2671 22.8822 31.2671 23.43V24.2565Z" fill="#21212D"/>
<path d="M41.2877 42.4965H32.2607C31.3338 42.4965 30.5796 41.7424 30.5796 40.8154V39.6451C30.5796 39.4554 30.7336 39.3014 30.9233 39.3014H42.6251C42.8149 39.3014 42.9689 39.4554 42.9689 39.6451V40.8154C42.9689 41.7424 42.2147 42.4965 41.2877 42.4965ZM31.2671 39.9889V40.8154C31.2671 41.3634 31.7128 41.809 32.2607 41.809H41.2877C41.8357 41.809 42.2814 41.3632 42.2814 40.8154V39.9889H31.2671Z" fill="#21212D"/>
<path d="M41.2877 42.4966H32.2607C31.3338 42.4966 30.5796 41.7424 30.5796 40.8155V23.43C30.5796 22.503 31.3338 21.749 32.2607 21.749H41.2877C42.2147 21.749 42.9689 22.5032 42.9689 23.43V40.8153C42.9689 41.7424 42.2147 42.4966 41.2877 42.4966ZM32.2607 22.4365C31.7128 22.4365 31.2671 22.8822 31.2671 23.43V40.8153C31.2671 41.3632 31.7128 41.8089 32.2607 41.8089H41.2877C41.8357 41.8089 42.2814 41.3631 42.2814 40.8153V23.43C42.2814 22.882 41.8357 22.4365 41.2877 22.4365H32.2607Z" fill="#21212D"/>
</svg>
