<svg width="1440" height="1125" viewBox="0 0 1440 1125" fill="none" xmlns="http://www.w3.org/2000/svg"><path fill="#1B1435" d="M-1-6h1440v1024H-1z"/><g filter="url(#filter0_f)"><path d="M1436.24-30.841c149.11-1.745 271.7 143.458 273.82 324.319 2.11 180.86-117.05 328.891-266.15 330.636-146.19 1.711-280.77-178.318-263.38-338.997.7-6.408 2.42-12.74 4.65-18.787C1252.7 83.216 1237.55-.502 1436.24-30.841z" fill="url(#paint0_linear)"/></g><g filter="url(#filter1_f)"><ellipse cx="266.502" cy="-56.893" rx="327.5" ry="270" transform="rotate(-118.125 266.502 -56.893)" fill="#1D00C1" fill-opacity=".9"/></g><g filter="url(#filter2_f)"><ellipse cx="-33.234" cy="87.055" rx="327.5" ry="270" transform="rotate(-86.86 -33.234 87.055)" fill="#EC5857" fill-opacity=".81"/></g><defs><filter id="filter0_f" x="679.014" y="-530.857" width="1531.07" height="1654.98" filterUnits="userSpaceOnUse" color-interpolation-filters="sRGB"><feFlood flood-opacity="0" result="BackgroundImageFix"/><feBlend in="SourceGraphic" in2="BackgroundImageFix" result="shape"/><feGaussianBlur stdDeviation="250" result="effect1_foregroundBlur"/></filter><filter id="filter1_f" x="-517.318" y="-872.601" width="1567.64" height="1631.42" filterUnits="userSpaceOnUse" color-interpolation-filters="sRGB"><feFlood flood-opacity="0" result="BackgroundImageFix"/><feBlend in="SourceGraphic" in2="BackgroundImageFix" result="shape"/><feGaussianBlur stdDeviation="250" result="effect1_foregroundBlur"/></filter><filter id="filter2_f" x="-803.436" y="-740.294" width="1540.4" height="1654.7" filterUnits="userSpaceOnUse" color-interpolation-filters="sRGB"><feFlood flood-opacity="0" result="BackgroundImageFix"/><feBlend in="SourceGraphic" in2="BackgroundImageFix" result="shape"/><feGaussianBlur stdDeviation="250" result="effect1_foregroundBlur"/></filter><linearGradient id="paint0_linear" x1="1407.76" y1="41" x2="1323.26" y2="559" gradientUnits="userSpaceOnUse"><stop stop-color="#951CD4"/><stop offset="1" stop-color="#662BE3"/></linearGradient></defs></svg>